<svg width="67" height="94" fill="none" xmlns="http://www.w3.org/2000/svg"><path d="M33.261.53C15.028.53.195 15.363.195 33.6c0 17.64 30.23 57.83 31.518 59.534.362.486.941.77 1.548.77.607 0 1.187-.284 1.549-.77 1.287-1.704 31.518-41.894 31.518-59.535C66.328 15.364 51.494.53 33.26.53zm0 50.577c-9.651 0-17.506-7.855-17.506-17.508 0-9.652 7.855-17.507 17.506-17.507 9.652 0 17.506 7.855 17.506 17.508 0 9.652-7.854 17.507-17.506 17.507z" fill="url(#paint0_linear)"/><defs><linearGradient id="paint0_linear" x1="-12.153" y1=".529" x2="82.606" y2="20.902" gradientUnits="userSpaceOnUse"><stop stop-color="#4BD8B5"/><stop offset="1" stop-color="#49D6DF"/></linearGradient></defs></svg>