<svg width="48" height="48" fill="none" xmlns="http://www.w3.org/2000/svg"><g clip-path="url(#clip0)"><path d="M35.22 11.56c0 3.177-1.14 5.927-3.387 8.175-2.248 2.247-4.998 3.387-8.175 3.387h-.005c-3.173-.002-5.922-1.14-8.17-3.387-2.247-2.248-3.386-4.998-3.386-8.175 0-3.176 1.14-5.926 3.387-8.173C17.73 1.14 20.479 0 23.653 0h.005c3.176 0 5.926 1.14 8.175 3.387 2.247 2.247 3.386 4.997 3.386 8.173z" fill="#FFBB85"/><path d="M43.984 39.746c0 2.506-.797 4.536-2.367 6.03-1.552 1.477-3.605 2.225-6.1 2.225H12.404c-2.495 0-4.548-.748-6.099-2.225-1.571-1.495-2.367-3.524-2.367-6.03 0-.964.031-1.917.095-2.834.065-.938.196-1.958.39-3.034.194-1.086.445-2.111.745-3.049.31-.97.732-1.928 1.253-2.845a10.765 10.765 0 011.89-2.463c.747-.715 1.66-1.288 2.716-1.707 1.052-.416 2.219-.627 3.466-.627.49 0 .964.2 1.879.796.572.373 1.23.798 1.958 1.263.629.401 1.48.777 2.532 1.116a10.092 10.092 0 003.097.5c1.03 0 2.071-.168 3.098-.5 1.052-.34 1.904-.715 2.533-1.116.735-.47 1.394-.894 1.958-1.262.914-.596 1.388-.797 1.879-.797 1.247 0 2.413.211 3.466.627 1.056.419 1.969.994 2.715 1.707.714.683 1.35 1.512 1.89 2.463.522.918.944 1.875 1.254 2.844.3.939.552 1.964.746 3.05.193 1.078.324 2.098.389 3.033.065.914.096 1.868.097 2.835z" fill="#6AFFE4"/><path d="M23.658 23.122h-.006V0h.006c3.176 0 5.926 1.14 8.174 3.387 2.248 2.247 3.387 4.997 3.387 8.173 0 3.177-1.14 5.927-3.387 8.175-2.247 2.247-4.997 3.387-8.174 3.387z" fill="#F5A86C"/><path d="M43.984 39.746c0 2.506-.797 4.536-2.367 6.03-1.552 1.477-3.605 2.225-6.1 2.225H23.651V26.857a10.069 10.069 0 003.405-.495c1.052-.34 1.904-.715 2.532-1.116.736-.47 1.395-.894 1.959-1.262.914-.596 1.388-.797 1.878-.797 1.247 0 2.414.211 3.467.627 1.056.419 1.969.994 2.715 1.707.714.683 1.35 1.512 1.89 2.463a15.07 15.07 0 011.254 2.844c.3.939.552 1.964.746 3.05a28.65 28.65 0 01.389 3.033c.064.914.096 1.868.097 2.835z" fill="url(#paint0_linear)"/></g><defs><linearGradient id="paint0_linear" x1="19.856" y1="23.188" x2="48.56" y2="30.327" gradientUnits="userSpaceOnUse"><stop stop-color="#4BD8B5"/><stop offset="1" stop-color="#49D6DF"/></linearGradient><clipPath id="clip0"><path fill="#fff" d="M0 0h48v48H0z"/></clipPath></defs></svg>