<svg width="78" height="80" fill="none" xmlns="http://www.w3.org/2000/svg"><path d="M59.703 55.23L48.2 61.137a5.478 5.478 0 00-3.898-1.626h-7.927c-.353 0-.482-.022-.52-.031a5.539 5.539 0 01-.397-.354l-.076-.072c-6.453-6.076-11.905-5.69-18.106-3.243-.97.383-.989.384-1.95.427l-1.747.003a3.978 3.978 0 00-3.745-2.656H4a3.978 3.978 0 00-3.972 3.976v15.297A3.976 3.976 0 004 76.831h5.833c1.727 0 3.2-1.11 3.745-2.653h3.208a4.54 4.54 0 011.062.222l15.083 4.033c.66.179 1.267.355 1.853.526C36.732 79.525 38.37 80 40.077 80c1.929 0 3.947-.607 6.601-2.378l.04-.027 18.597-13.243c2.444-1.744 3.157-4.892 1.657-7.324-1.483-2.397-4.609-3.17-7.269-1.799zM10.68 72.86a.858.858 0 01-.846.846H4a.858.858 0 01-.847-.847V57.562A.86.86 0 014 56.711h5.833a.86.86 0 01.846.851V72.86zm52.822-11.052L44.924 75.036c-3.78 2.517-5.39 2.049-9.268.922-.6-.174-1.22-.354-1.913-.542L18.656 71.38a7.489 7.489 0 00-1.87-.328h-2.982V59.368l1.663-.007c1.189-.054 1.557-.091 2.955-.642 5.375-2.122 9.522-2.374 14.818 2.613l.075.07c.912.858 1.477 1.235 3.059 1.235H44.3a2.373 2.373 0 012.37 2.37 2.37 2.37 0 01-2.37 2.366H31.449a1.562 1.562 0 100 3.125h12.852a5.5 5.5 0 005.38-6.609l11.452-5.882c1.044-.538 2.472-.482 3.18.663.625 1.013.275 2.362-.812 3.138z" fill="url(#paint0_linear)"/><path d="M35.992 36.956a5.08 5.08 0 00-2.86 4.565 5.078 5.078 0 003.402 4.785v2.327a5.171 5.171 0 005.163 5.168h6.922a5.173 5.173 0 005.167-5.168v-2.327a5.078 5.078 0 003.401-4.785 5.08 5.08 0 00-2.86-4.565c.684-2.542 2.071-4.435 3.53-6.42 2.244-3.054 4.787-6.515 4.782-12.612 0-.545-.023-1.103-.067-1.66a1.563 1.563 0 00-3.115.247c.038.475.057.95.057 1.414.005 5.072-2.026 7.835-4.175 10.76-1.631 2.22-3.31 4.509-4.11 7.76H39.09c-.8-3.251-2.478-5.539-4.11-7.759-2.15-2.925-4.18-5.688-4.174-10.76.007-5.41 2.324-8.825 4.267-10.738 2.675-2.634 6.34-4.115 10.066-4.062h.044c3.036-.046 6.08.943 8.566 2.78a1.563 1.563 0 001.858-2.512C52.58 1.157 48.87-.046 45.159.001c-4.544-.055-9.018 1.75-12.279 4.961-3.395 3.343-5.193 7.825-5.2 12.96-.007 6.1 2.537 9.561 4.782 12.616 1.459 1.984 2.846 3.876 3.53 6.418zm14.67 11.677a2.045 2.045 0 01-2.043 2.043h-6.922a2.043 2.043 0 01-2.038-2.043v-2.042H50.66v2.042zm-12.455-9.062h13.906c1.075 0 1.95.875 1.95 1.95a1.95 1.95 0 01-1.95 1.945H38.207a1.95 1.95 0 01-1.95-1.945c0-1.075.875-1.95 1.95-1.95z" fill="url(#paint1_linear)"/><path d="M46.722 11.414a1.562 1.562 0 10-3.124 0v9.69a1.562 1.562 0 103.124 0v-9.69z" fill="url(#paint2_linear)"/><path d="M45.16 26.61c-.863 0-1.562.699-1.562 1.562v.009c0 .863.7 1.558 1.562 1.558.863 0 1.563-.704 1.563-1.567s-.7-1.563-1.563-1.563z" fill="url(#paint3_linear)"/><path d="M76.41 17.912h-6.347a1.562 1.562 0 100 3.125h6.346a1.562 1.562 0 000-3.125z" fill="url(#paint4_linear)"/><path d="M67.438 7.847c.299 0 .602-.086.869-.265l5.266-3.535a1.562 1.562 0 10-1.742-2.594l-5.266 3.534a1.562 1.562 0 00.873 2.86z" fill="url(#paint5_linear)"/><path d="M73.573 34.901l-5.266-3.534a1.562 1.562 0 00-1.741 2.594l5.266 3.535a1.561 1.561 0 101.741-2.595z" fill="url(#paint6_linear)"/><path d="M13.911 21.037h6.342a1.562 1.562 0 100-3.125H13.91a1.562 1.562 0 100 3.125z" fill="url(#paint7_linear)"/><path d="M16.747 4.047l5.266 3.535a1.561 1.561 0 101.741-2.595L18.49 1.453a1.562 1.562 0 00-1.742 2.594z" fill="url(#paint8_linear)"/><path d="M22.013 31.367L16.747 34.9a1.562 1.562 0 001.742 2.595l5.266-3.535a1.562 1.562 0 00-1.742-2.594z" fill="url(#paint9_linear)"/><path d="M57.975 10.818a1.56 1.56 0 002.208-.002c.61-.61.607-1.602-.003-2.212a1.563 1.563 0 00-2.21 2.21l.005.004z" fill="url(#paint10_linear)"/><defs><linearGradient id="paint0_linear" x1="-12.617" y1="53.586" x2="50.609" y2="102.796" gradientUnits="userSpaceOnUse"><stop stop-color="#4BD8B5"/><stop offset="1" stop-color="#49D6DF"/></linearGradient><linearGradient id="paint1_linear" x1="21.153" y1="0" x2="71.597" y2="9.95" gradientUnits="userSpaceOnUse"><stop stop-color="#4BD8B5"/><stop offset="1" stop-color="#49D6DF"/></linearGradient><linearGradient id="paint2_linear" x1="43.014" y1="9.852" x2="47.673" y2="10.196" gradientUnits="userSpaceOnUse"><stop stop-color="#4BD8B5"/><stop offset="1" stop-color="#49D6DF"/></linearGradient><linearGradient id="paint3_linear" x1="43.014" y1="26.609" x2="47.305" y2="27.91" gradientUnits="userSpaceOnUse"><stop stop-color="#4BD8B5"/><stop offset="1" stop-color="#49D6DF"/></linearGradient><linearGradient id="paint4_linear" x1="66.732" y1="17.912" x2="74.421" y2="24.987" gradientUnits="userSpaceOnUse"><stop stop-color="#4BD8B5"/><stop offset="1" stop-color="#49D6DF"/></linearGradient><linearGradient id="paint5_linear" x1="64.307" y1="1.188" x2="75.28" y2="5.385" gradientUnits="userSpaceOnUse"><stop stop-color="#4BD8B5"/><stop offset="1" stop-color="#49D6DF"/></linearGradient><linearGradient id="paint6_linear" x1="64.307" y1="31.102" x2="75.281" y2="35.299" gradientUnits="userSpaceOnUse"><stop stop-color="#4BD8B5"/><stop offset="1" stop-color="#49D6DF"/></linearGradient><linearGradient id="paint7_linear" x1="10.581" y1="17.912" x2="18.27" y2="24.983" gradientUnits="userSpaceOnUse"><stop stop-color="#4BD8B5"/><stop offset="1" stop-color="#49D6DF"/></linearGradient><linearGradient id="paint8_linear" x1="14.489" y1="1.188" x2="25.462" y2="5.385" gradientUnits="userSpaceOnUse"><stop stop-color="#4BD8B5"/><stop offset="1" stop-color="#49D6DF"/></linearGradient><linearGradient id="paint9_linear" x1="14.489" y1="31.102" x2="25.462" y2="35.299" gradientUnits="userSpaceOnUse"><stop stop-color="#4BD8B5"/><stop offset="1" stop-color="#49D6DF"/></linearGradient><linearGradient id="paint10_linear" x1="56.929" y1="8.146" x2="61.221" y2="9.448" gradientUnits="userSpaceOnUse"><stop stop-color="#4BD8B5"/><stop offset="1" stop-color="#49D6DF"/></linearGradient></defs></svg>