<svg width="20" height="14" fill="none" xmlns="http://www.w3.org/2000/svg"><path d="M19.15 1.575C18.608.61 18.019.432 16.82.365 15.623.284 12.611.25 10.002.25 7.39.25 4.376.284 3.18.364 1.984.433 1.394.609.846 1.575.288 2.539 0 4.199 0 7.121v.01c0 2.91.287 4.583.846 5.537.548.965 1.136 1.14 2.333 1.22 1.197.07 4.21.112 6.823.112 2.61 0 5.62-.041 6.82-.11 1.198-.081 1.787-.256 2.33-1.221.563-.954.848-2.627.848-5.537v-.01c0-2.923-.285-4.583-.85-5.547zm-11.65 9.3v-7.5l6.25 3.75-6.25 3.75z" fill="#FEFEFE"/></svg>